<svg width="21" height="28" viewBox="0 0 21 28" fill="none" xmlns="http://www.w3.org/2000/svg">
<path d="M15.0086 17.6101H14.06L13.7238 17.1778C14.9412 15.2952 15.6102 12.8917 15.6089 10.4059C15.6089 8.34785 15.1512 6.33597 14.2936 4.62472C13.4361 2.91347 12.2172 1.57971 10.7911 0.79211C9.36502 0.00450879 7.7958 -0.201564 6.28189 0.199952C4.76797 0.601468 3.37735 1.59254 2.28588 3.04784C1.1944 4.50313 0.451101 6.35729 0.149964 8.37585C-0.151173 10.3944 0.00338155 12.4867 0.594083 14.3881C1.18478 16.2896 2.1851 17.9148 3.46854 19.0582C4.75197 20.2016 6.26089 20.8119 7.80446 20.8119C9.73757 20.8119 11.5146 19.8674 12.8834 18.2985L13.2075 18.7467V20.0114L19.211 28L21 25.6146L15.0086 17.6101ZM7.80446 17.6101C4.81475 17.6101 2.40138 14.3922 2.40138 10.4059C2.40138 6.41967 4.81475 3.20183 7.80446 3.20183C10.7942 3.20183 13.2075 6.41967 13.2075 10.4059C13.2075 14.3922 10.7942 17.6101 7.80446 17.6101Z" fill="black"/>
</svg>
