<svg width="40" height="40" viewBox="0 0 40 40" fill="none" xmlns="http://www.w3.org/2000/svg">
<path d="M14.793 0.527305C15.0616 0.193927 15.4236 0.00475818 15.802 8.85409e-05C16.1805 -0.00458109 16.5454 0.175618 16.8191 0.502305C16.9531 0.66107 17.0603 0.851841 17.1343 1.06332C17.2083 1.2748 17.2475 1.50268 17.2498 1.73347C17.252 1.96426 17.2172 2.19326 17.1473 2.40692C17.0775 2.62058 16.974 2.81454 16.8431 2.97732L4.74467 18.1099L38.6079 18.3724C38.9792 18.3751 39.3345 18.562 39.5956 18.892C39.8566 19.2221 40.0021 19.6683 40 20.1324C39.9979 20.5965 39.8483 21.0406 39.5843 21.3669C39.3202 21.6932 38.9632 21.8751 38.5919 21.8724L4.97268 21.6124L17.5791 37.0125C17.8182 37.3025 17.9653 37.6908 17.9932 38.1057C18.0211 38.5206 17.9281 38.9342 17.7312 39.27L17.5812 39.4875C17.3099 39.8162 16.9469 40 16.5691 40C16.1913 40 15.8283 39.8162 15.5571 39.4875L0.418514 21.0024C0.286933 20.8427 0.182152 20.6517 0.110295 20.4408C0.0384386 20.2298 0.000948898 20.0031 1.77813e-05 19.7738C-0.000913336 19.5445 0.0347329 19.3173 0.104872 19.1054C0.175012 18.8936 0.278237 18.7013 0.408513 18.5399L14.793 0.527305Z" fill="#111111"/>
</svg>
