<svg width="32" height="32" viewBox="0 0 32 32" fill="none" xmlns="http://www.w3.org/2000/svg">
<path fill-rule="evenodd" clip-rule="evenodd" d="M23.0559 2.49882L7.64985 4.98838C5.13512 5.39475 3.42595 7.76277 3.83232 10.2775L6.32187 25.6835C6.72824 28.1983 9.09627 29.9074 11.611 29.5011L16.8985 28.6466C25.0016 27.3372 30.5089 19.7069 29.1995 11.6039L28.345 6.31635C27.9386 3.80162 25.5706 2.09245 23.0559 2.49882ZM7.40458 3.4706C4.0516 4.01243 1.77272 7.16979 2.31454 10.5228L4.8041 25.9288C5.34592 29.2818 8.50329 31.5607 11.8563 31.0188L17.1438 30.1644C26.0851 28.7195 32.1621 20.2999 30.7172 11.3586L29.8628 6.07108C29.321 2.71811 26.1636 0.43922 22.8106 0.981047L7.40458 3.4706Z" fill="#65676B"/>
<path fill-rule="evenodd" clip-rule="evenodd" d="M9.02098 13.3247C9.02098 12.4755 9.70932 11.7872 10.5584 11.7872H10.5687C11.4178 11.7872 12.1062 12.4755 12.1062 13.3247C12.1062 14.1738 11.4178 14.8621 10.5687 14.8621H10.5584C9.70932 14.8621 9.02098 14.1738 9.02098 13.3247Z" fill="#65676B"/>
<path fill-rule="evenodd" clip-rule="evenodd" d="M21.3205 10.2497C21.3205 9.40059 22.0088 8.71224 22.8579 8.71224H22.8682C23.7173 8.71224 24.4056 9.40059 24.4056 10.2497C24.4056 11.0988 23.7173 11.7872 22.8682 11.7872H22.8579C22.0088 11.7872 21.3205 11.0988 21.3205 10.2497Z" fill="#65676B"/>
<path fill-rule="evenodd" clip-rule="evenodd" d="M12.2493 19.0903C12.2493 19.0904 12.2492 19.0901 12.2493 19.0903L11.5835 19.4745C12.2493 19.0903 12.2493 19.0903 12.2493 19.0903L12.2504 19.0922L12.2568 19.1032C12.2629 19.1134 12.2723 19.1294 12.285 19.1505C12.3104 19.1928 12.3488 19.2557 12.3985 19.3345C12.4981 19.4926 12.6425 19.7134 12.8194 19.9615C13.1804 20.4677 13.6484 21.0463 14.1274 21.4478C14.5918 21.837 15.2758 22.1859 15.8872 22.4462C16.1848 22.573 16.4503 22.6726 16.6408 22.7402C16.7358 22.774 16.8116 22.7996 16.8627 22.8164C16.8883 22.8249 16.9076 22.8311 16.92 22.8351L16.9334 22.8393L16.9359 22.8401L16.7083 23.5744C16.4808 24.3087 16.4807 24.3087 16.4806 24.3086L16.4778 24.3078L16.4719 24.3059L16.4519 24.2996C16.435 24.2942 16.411 24.2864 16.3805 24.2763C16.3197 24.2562 16.233 24.2269 16.1263 24.189C15.9131 24.1133 15.6175 24.0024 15.2848 23.8608C14.6354 23.5843 13.782 23.1644 13.1398 22.6261C12.5122 22.1 11.9551 21.3974 11.5677 20.8543C11.3704 20.5777 11.2097 20.3318 11.0979 20.1544C11.0418 20.0655 10.9978 19.9933 10.9673 19.9426C10.952 19.9172 10.9402 19.8972 10.9318 19.883L10.922 19.8662L10.9191 19.8613L10.9182 19.8597C10.9182 19.8596 10.9176 19.8587 11.5835 19.4745L10.9182 19.8597C10.706 19.492 10.8315 19.0209 11.1992 18.8087C11.5668 18.5965 12.037 18.7228 12.2493 19.0903ZM16.9359 22.8401C16.936 22.8401 16.9358 22.8401 16.9359 22.8401ZM16.9359 22.8401C17.3413 22.9659 17.5683 23.3965 17.4426 23.802C17.3169 24.2075 16.8861 24.4343 16.4806 24.3086L16.7083 23.5744" fill="#65676B"/>
<path fill-rule="evenodd" clip-rule="evenodd" d="M29.9058 12.4525C22.3571 16.8228 20.6202 22.3718 20.0167 24.7858C19.4633 26.9994 18.0108 28.9966 17.252 29.7554L16.1649 28.6682C16.7727 28.0604 18.0535 26.2993 18.5251 24.413C19.1892 21.7567 21.1045 15.7714 29.1355 11.1219L29.9058 12.4525Z" fill="#65676B"/>
</svg>
