<svg width="32" height="32" viewBox="0 0 32 32" fill="none" xmlns="http://www.w3.org/2000/svg">
<path fill-rule="evenodd" clip-rule="evenodd" d="M29.3331 13.4591C29.8118 13.4591 30.1998 13.8471 30.1998 14.3258V28.0001C30.1998 29.2151 29.2148 30.2001 27.9998 30.2001H25.3331C24.1181 30.2001 23.1331 29.2151 23.1331 28.0001V26.0001C23.1331 25.5214 23.5212 25.1334 23.9998 25.1334C24.4785 25.1334 24.8665 25.5214 24.8665 26.0001V28.0001C24.8665 28.2578 25.0754 28.4667 25.3331 28.4667H27.9998C28.2575 28.4667 28.4665 28.2578 28.4665 28.0001V14.3258C28.4665 13.8471 28.8545 13.4591 29.3331 13.4591Z" fill="#65676B"/>
<path fill-rule="evenodd" clip-rule="evenodd" d="M4.48916 3.53336C5.23706 4.21576 6.3126 5.00596 7.09419 5.49213C7.53024 5.76335 7.70806 6.21986 7.72065 6.6058C7.7332 6.99046 7.58795 7.44222 7.20165 7.74443C6.12893 8.58365 4.96617 10.1134 4.54781 11.0841C3.4655 13.5952 3.24191 16.3907 3.9113 19.0406C4.58069 21.6906 6.10617 24.0486 8.25373 25.7516C10.4014 27.4546 13.0519 28.4078 15.7976 28.4641C17.273 28.4943 18.5286 28.4867 19.7318 28.1106C20.9017 27.7449 22.0836 27.008 23.3231 25.4586L24.6766 26.5414C23.2494 28.3254 21.7886 29.2838 20.2489 29.765C18.7425 30.2359 17.2214 30.2269 15.7621 30.197C12.6383 30.1331 9.62177 29.0485 7.17676 27.1097C4.73169 25.1709 2.9936 22.485 2.23075 19.4651C1.4679 16.4452 1.72279 13.2593 2.95603 10.398C3.44412 9.26555 4.59242 7.72249 5.75767 6.69269C4.91277 6.13111 3.89404 5.35812 3.16927 4.67308C2.95431 4.4699 2.75396 4.26397 2.58765 4.06482C2.43029 3.87638 2.26406 3.64809 2.16253 3.40199C2.07363 3.18653 1.92687 2.67502 2.29816 2.22428C2.61971 1.83392 3.09677 1.7998 3.33314 1.7998V1.7998L3.37596 1.79981C6.08164 1.79989 15.3619 1.80016 17.9457 1.92867L17.9838 1.93057L18.0217 1.93583C21.1163 2.36521 23.9841 3.79557 26.1834 6.00749C28.3827 8.21947 29.7917 11.0905 30.1926 14.1789L28.4737 14.402C28.1219 11.6922 26.8856 9.17206 24.9542 7.22963C23.0317 5.2961 20.5266 4.04171 17.8211 3.65799C15.5231 3.54773 8.02991 3.5349 4.48916 3.53336ZM3.2894 3.53584C3.2894 3.53584 3.29591 3.5341 3.31251 3.53349C3.29829 3.53601 3.2894 3.53584 3.2894 3.53584Z" fill="#65676B"/>
<path fill-rule="evenodd" clip-rule="evenodd" d="M23.7399 19.4932C16.2622 17.142 10.3006 18.5395 8.3695 19.4503C7.93659 19.6545 7.42013 19.469 7.21595 19.0361C7.01177 18.6032 7.19719 18.0867 7.63011 17.8826C9.96564 16.781 16.3775 15.3613 24.2598 17.8397C24.7164 17.9833 24.9701 18.4698 24.8266 18.9264C24.683 19.383 24.1965 19.6368 23.7399 19.4932Z" fill="#65676B"/>
<path fill-rule="evenodd" clip-rule="evenodd" d="M19.3065 23.1865C17.6531 20.982 14.3465 20.982 12.6931 23.1865L11.3065 22.1465C13.6531 19.0176 18.3465 19.0176 20.6931 22.1465L19.3065 23.1865Z" fill="#65676B"/>
<path fill-rule="evenodd" clip-rule="evenodd" d="M15.9998 24.8665C12.2554 24.8665 9.34927 22.6001 7.25665 19.1124L8.74297 18.2206C10.6503 21.3995 13.0775 23.1331 15.9998 23.1331C19.0192 23.1331 21.7522 21.7107 23.2032 18.3251L24.7964 19.0079C23.0474 23.0889 19.6471 24.8665 15.9998 24.8665Z" fill="#65676B"/>
</svg>
