<svg width="32" height="32" viewBox="0 0 32 32" fill="none" xmlns="http://www.w3.org/2000/svg">
<path fill-rule="evenodd" clip-rule="evenodd" d="M15.9998 3.53314C9.11465 3.53314 3.53314 9.11465 3.53314 15.9998C3.53314 22.885 9.11465 28.4665 15.9998 28.4665C22.885 28.4665 28.4665 22.885 28.4665 15.9998C28.4665 9.11465 22.885 3.53314 15.9998 3.53314ZM1.7998 15.9998C1.7998 8.15736 8.15736 1.7998 15.9998 1.7998C23.8422 1.7998 30.1998 8.15736 30.1998 15.9998C30.1998 23.8422 23.8422 30.1998 15.9998 30.1998C8.15736 30.1998 1.7998 23.8422 1.7998 15.9998Z" fill="#65676B"/>
<path fill-rule="evenodd" clip-rule="evenodd" d="M8.74039 19.3675C9.08958 19.0402 9.63804 19.0579 9.9654 19.4071L9.33314 19.9998C9.9654 19.4071 9.96563 19.4073 9.9654 19.4071L9.96392 19.4055C9.96382 19.4054 9.96433 19.4059 9.9654 19.4071L9.97826 19.4201C9.99189 19.4339 10.0148 19.4566 10.0467 19.4871C10.1105 19.5479 10.2103 19.6393 10.3443 19.7512C10.6127 19.9752 11.0156 20.2791 11.5398 20.584C12.5888 21.1943 14.106 21.7998 15.9998 21.7998C17.8936 21.7998 19.4108 21.1943 20.4598 20.584C20.984 20.2791 21.3869 19.9752 21.6553 19.7512C21.7893 19.6393 21.8891 19.5479 21.9529 19.4871C21.9849 19.4566 22.0077 19.4339 22.0214 19.4201L22.0348 19.4064C22.3622 19.0577 22.9102 19.0403 23.2592 19.3675C23.6084 19.6949 23.6261 20.2434 23.2987 20.5926L22.6665 19.9998C23.2987 20.5926 23.299 20.5923 23.2987 20.5926L23.2977 20.5937L23.2963 20.5951L23.293 20.5986L23.2835 20.6085L23.2534 20.6394C23.2284 20.6647 23.1935 20.6992 23.1489 20.7417C23.0597 20.8267 22.9316 20.9436 22.7661 21.0818C22.4356 21.3577 21.9531 21.7205 21.3315 22.0822C20.0888 22.8053 18.2726 23.5331 15.9998 23.5331C13.727 23.5331 11.9108 22.8053 10.6681 22.0822C10.0465 21.7205 9.56401 21.3577 9.23347 21.0818C9.06798 20.9436 8.93987 20.8267 8.85073 20.7417C8.80614 20.6992 8.77123 20.6647 8.74621 20.6394L8.71608 20.6085L8.7066 20.5986L8.70327 20.5951L8.70195 20.5937C8.70169 20.5934 8.70087 20.5926 9.33314 19.9998L8.70087 20.5926C8.37351 20.2434 8.3912 19.6949 8.74039 19.3675ZM22.0363 19.4049C22.0363 19.4048 22.0363 19.4048 22.0363 19.4049Z" fill="#65676B"/>
<path fill-rule="evenodd" clip-rule="evenodd" d="M9.33314 13.3331C9.33314 12.5968 9.93009 11.9998 10.6665 11.9998H10.6798C11.4162 11.9998 12.0131 12.5968 12.0131 13.3331C12.0131 14.0695 11.4162 14.6665 10.6798 14.6665H10.6665C9.93009 14.6665 9.33314 14.0695 9.33314 13.3331Z" fill="#65676B"/>
<path fill-rule="evenodd" clip-rule="evenodd" d="M19.9998 13.3331C19.9998 12.5968 20.5968 11.9998 21.3331 11.9998H21.3465C22.0829 11.9998 22.6798 12.5968 22.6798 13.3331C22.6798 14.0695 22.0829 14.6665 21.3465 14.6665H21.3331C20.5968 14.6665 19.9998 14.0695 19.9998 13.3331Z" fill="#65676B"/>
</svg>
