<svg width="32" height="32" viewBox="0 0 32 32" fill="none" xmlns="http://www.w3.org/2000/svg">
<path fill-rule="evenodd" clip-rule="evenodd" d="M13.1047 4.86663C12.6273 4.86663 12.1695 5.05628 11.8319 5.39384L8.61296 8.61279C8.45043 8.77532 8.22999 8.86663 8.00013 8.86663H4.00013C3.52274 8.86663 3.0649 9.05628 2.72734 9.39384C2.38977 9.73141 2.20013 10.1892 2.20013 10.6666V25.3333C2.20013 25.8107 2.38977 26.2685 2.72734 26.6061C3.0649 26.9437 3.52274 27.1333 4.00013 27.1333H28.0001C28.4775 27.1333 28.9354 26.9437 29.2729 26.6061C29.6105 26.2685 29.8001 25.8107 29.8001 25.3333V10.6666C29.8001 10.1892 29.6105 9.73141 29.2729 9.39384C28.9354 9.05628 28.4775 8.86663 28.0001 8.86663H24.0001C23.7703 8.86663 23.5498 8.77532 23.3873 8.61279L20.1684 5.39384C19.8308 5.05628 19.373 4.86663 18.8956 4.86663H13.1047ZM10.6063 4.16819C11.2689 3.50556 12.1676 3.1333 13.1047 3.1333H18.8956C19.8327 3.1333 20.7314 3.50556 21.394 4.16819L24.3591 7.1333H28.0001C28.9372 7.1333 29.8359 7.50556 30.4986 8.16819C31.1612 8.83082 31.5335 9.72954 31.5335 10.6666V25.3333C31.5335 26.2704 31.1612 27.1691 30.4986 27.8317C29.8359 28.4944 28.9372 28.8666 28.0001 28.8666H4.00013C3.06303 28.8666 2.16431 28.4944 1.50169 27.8317C0.839058 27.1691 0.466797 26.2704 0.466797 25.3333V10.6666C0.466797 9.72954 0.839058 8.83082 1.50169 8.16819C2.16431 7.50556 3.06303 7.1333 4.00013 7.1333H7.64115L10.6063 4.16819Z" fill="#65676B"/>
<path fill-rule="evenodd" clip-rule="evenodd" d="M16.0001 11.5333C12.7969 11.5333 10.2001 14.13 10.2001 17.3333C10.2001 20.5366 12.7969 23.1333 16.0001 23.1333C19.2034 23.1333 21.8001 20.5366 21.8001 17.3333C21.8001 14.13 19.2034 11.5333 16.0001 11.5333ZM8.4668 17.3333C8.4668 13.1728 11.8396 9.79997 16.0001 9.79997C20.1607 9.79997 23.5335 13.1728 23.5335 17.3333C23.5335 21.4938 20.1607 24.8666 16.0001 24.8666C11.8396 24.8666 8.4668 21.4938 8.4668 17.3333Z" fill="#65676B"/>
<path fill-rule="evenodd" clip-rule="evenodd" d="M24.6668 12.6666C24.6668 11.9303 25.2638 11.3333 26.0001 11.3333H26.0135C26.7498 11.3333 27.3468 11.9303 27.3468 12.6666C27.3468 13.403 26.7498 14 26.0135 14H26.0001C25.2638 14 24.6668 13.403 24.6668 12.6666Z" fill="#65676B"/>
</svg>
