<svg width="56" height="56" viewBox="0 0 56 56" fill="none" xmlns="http://www.w3.org/2000/svg">
<path d="M44.4227 26.2668L36.3559 18.1861C34.7703 16.5956 33.5765 14.6567 32.8692 12.5235L31.8583 9.48547C31.4788 8.35531 30.7552 7.37271 29.7894 6.6758C28.8235 5.97889 27.6639 5.60271 26.4736 5.60014C25.7285 5.59742 24.9902 5.74173 24.3008 6.02483C23.6114 6.30794 22.9845 6.72429 22.4557 7.25012C21.927 7.77595 21.5068 8.40095 21.2191 9.08945C20.9315 9.77795 20.7821 10.5165 20.7794 11.2628V13.5775C20.784 15.5786 21.1043 17.5665 21.7284 19.4675L22.6156 22.1335H12.7745C11.6145 22.1335 10.502 22.5951 9.68174 23.4167C8.86149 24.2384 8.40068 25.3528 8.40068 26.5148C8.40353 27.2289 8.57739 27.932 8.90767 28.5649C9.23794 29.1978 9.71499 29.7421 10.2988 30.1521C9.71445 30.5519 9.23623 31.0882 8.9055 31.7148C8.57477 32.3414 8.40149 33.0393 8.40068 33.7481C8.38429 34.6213 8.62633 35.4798 9.09629 36.2153C9.56624 36.9509 10.2431 37.5306 11.0415 37.8814C10.6706 38.5074 10.4713 39.2203 10.4638 39.9481C10.462 41.0684 10.8887 42.1468 11.6561 42.9617C12.4236 43.7766 13.4735 44.266 14.59 44.3294V44.6188C14.59 45.7808 15.0508 46.8952 15.8711 47.7168C16.6913 48.5385 17.8038 49.0001 18.9638 49.0001H34.4166C36.979 48.9978 39.5065 48.4037 41.8025 47.2641L42.4421 46.9334H47.5999V26.2668H44.4227ZM43.4737 42.8001H41.4106L39.9045 43.5648C38.1773 44.4155 36.2793 44.8607 34.3547 44.8668H20.2017C19.7413 44.8851 19.2881 44.7486 18.9142 44.4789C18.5403 44.2092 18.2672 43.8219 18.1386 43.3788L17.6228 41.5808L15.8692 40.7334C15.4653 40.5686 15.1239 40.2798 14.8941 39.9085C14.6642 39.5372 14.5578 39.1025 14.59 38.6668L14.9408 36.6001L13.3728 35.0708C13.0317 34.737 12.8165 34.2952 12.7638 33.8205C12.7111 33.3457 12.8243 32.8674 13.084 32.4668L14.4456 30.2141L12.9395 27.9408C12.8534 27.8359 12.7892 27.7147 12.7507 27.5844C12.7123 27.4541 12.7004 27.3174 12.7158 27.1824C12.7312 27.0474 12.7736 26.9169 12.8404 26.7987C12.9071 26.6804 12.997 26.5768 13.1046 26.4941C13.3005 26.3307 13.5517 26.2493 13.806 26.2668H28.351L25.6483 18.1655C25.1555 16.6862 24.9047 15.1369 24.9056 13.5775V11.2835C24.9161 10.8757 25.0824 10.4875 25.3704 10.199C25.6583 9.91059 26.0459 9.74393 26.453 9.73347C26.7765 9.73371 27.0918 9.83552 27.3545 10.0246C27.6173 10.2136 27.8142 10.4804 27.9178 10.7875L29.0319 13.8668C29.922 16.5843 31.4258 19.0595 33.4263 21.1001L42.7103 30.4001H43.4737V42.8001Z" fill="#5E5E5E"/>
</svg>
