<svg width="32" height="32" viewBox="0 0 32 32" fill="none" xmlns="http://www.w3.org/2000/svg">
<path d="M9.89985 24.0002C9.04572 24.0002 8.26012 23.8226 7.54307 23.4676C6.82602 23.0989 6.20388 22.5868 5.67663 21.9313C5.14939 21.2621 4.73814 20.4837 4.44288 19.5961C4.14763 18.7084 4 17.732 4 16.6668C4 15.6017 4.14763 14.6252 4.44288 13.7376C4.73814 12.8499 5.14939 12.0784 5.67663 11.4229C6.21442 10.7537 6.84184 10.2416 7.55889 9.88657C8.27594 9.51785 9.0668 9.3335 9.93148 9.3335C10.8067 9.3335 11.6081 9.51785 12.3357 9.88657C13.0633 10.2553 13.6802 10.8084 14.1863 11.5458L13.2057 12.8158C12.7522 12.2422 12.2566 11.8257 11.7188 11.5663C11.1916 11.2931 10.6169 11.1566 9.99475 11.1566C9.36206 11.1566 8.77155 11.2931 8.22322 11.5663C7.68543 11.8394 7.21618 12.2218 6.81548 12.7134C6.42532 13.205 6.11952 13.7922 5.89807 14.475C5.68718 15.1442 5.58173 15.8748 5.58173 16.6668C5.58173 17.4452 5.68718 18.1758 5.89807 18.8586C6.11952 19.5278 6.42532 20.115 6.81548 20.6203C7.21618 21.1119 7.68543 21.4943 8.22322 21.7674C8.761 22.0405 9.34624 22.1771 9.97894 22.1771C10.5694 22.1771 11.1336 22.061 11.6714 21.8288C12.2197 21.583 12.7259 21.1802 13.1898 20.6203L14.0914 22.1771C13.5431 22.7779 12.8999 23.2354 12.1617 23.5495C11.4341 23.8499 10.6802 24.0002 9.89985 24.0002ZM12.573 21.9108V16.5849H14.0914V22.1771L12.573 21.9108Z" fill="#65676B"/>
<path d="M15.5381 23.8363V9.49737H17.1198V23.8363H15.5381Z" fill="#65676B"/>
<path d="M20.2765 16.2776H25.9865V18.0393H20.2765V16.2776ZM20.4347 23.8363H18.8529V9.49737H26.6667V11.2795H20.4347V23.8363Z" fill="#65676B"/>
<path fill-rule="evenodd" clip-rule="evenodd" d="M21.6774 2.85074H10.3226C5.47673 2.85074 1.54839 6.70006 1.54839 11.4484V20.5519C1.54839 25.3003 5.47673 29.1496 10.3226 29.1496H21.6774C26.5233 29.1496 30.4516 25.3003 30.4516 20.5519V11.4484C30.4516 6.70006 26.5233 2.85074 21.6774 2.85074ZM10.3226 1.3335C4.62158 1.3335 0 5.86211 0 11.4484V20.5519C0 26.1382 4.62158 30.6668 10.3226 30.6668H21.6774C27.3784 30.6668 32 26.1382 32 20.5519V11.4484C32 5.86211 27.3784 1.3335 21.6774 1.3335H10.3226Z" fill="#65676B"/>
</svg>
