<svg width="57" height="56" viewBox="0 0 57 56" fill="none" xmlns="http://www.w3.org/2000/svg">
<path d="M18.3179 19.9109H38.681V21.9331H18.3179V19.9109ZM18.3179 27.9998H32.5721V25.9776H18.3179V27.9998ZM50.8988 23.9554C50.929 26.1696 50.4188 28.3581 49.4117 30.3337C48.4045 32.3094 46.9305 34.0134 45.1157 35.3L28.4995 46.1998V38.1109H20.3542C16.5738 38.1109 12.9482 36.6195 10.275 33.9648C7.60187 31.3102 6.1001 27.7096 6.1001 23.9554C6.1001 20.2011 7.60187 16.6006 10.275 13.9459C12.9482 11.2912 16.5738 9.7998 20.3542 9.7998H36.6447C40.4251 9.7998 44.0507 11.2912 46.7239 13.9459C49.3971 16.6006 50.8988 20.2011 50.8988 23.9554V23.9554ZM46.8262 23.9554C46.8262 21.2737 45.7535 18.7019 43.8441 16.8057C41.9347 14.9095 39.345 13.8442 36.6447 13.8442H20.3542C17.6539 13.8442 15.0642 14.9095 13.1548 16.8057C11.2454 18.7019 10.1727 21.2737 10.1727 23.9554C10.1727 26.637 11.2454 29.2088 13.1548 31.105C15.0642 33.0012 17.6539 34.0665 20.3542 34.0665H32.5721V38.6771L42.7536 32.0442C44.0438 31.1267 45.0891 29.9104 45.7988 28.5008C46.5085 27.0912 46.8612 25.5309 46.8262 23.9554Z" fill="#5E5E5E"/>
</svg>
