<svg width="80" height="80" viewBox="0 0 80 80" fill="none" xmlns="http://www.w3.org/2000/svg">
<path d="M40.8335 68.3335C56.0213 68.3335 68.3335 56.0213 68.3335 40.8335C68.3335 25.6457 56.0213 13.3335 40.8335 13.3335C25.6457 13.3335 13.3335 25.6457 13.3335 40.8335C13.3335 56.0213 25.6457 68.3335 40.8335 68.3335Z" fill="#DEB8DC" stroke="#523951" stroke-width="2" stroke-miterlimit="10"/>
<path d="M44.1331 52.8998C44.5472 52.8284 44.9713 52.8402 45.3807 52.9344C45.7902 53.0286 46.1768 53.2033 46.5181 53.4484C46.8593 53.6935 47.1484 54.004 47.3685 54.3619C47.5885 54.7198 47.7351 55.118 47.7998 55.5331C47.8931 56.3531 47.6789 57.1786 47.1986 57.8498C46.7183 58.521 46.0061 58.9902 45.1998 59.1664L37.1831 60.5164C37.524 60.4608 37.8725 60.4749 38.2077 60.558C38.5429 60.6411 38.8578 60.7914 39.1331 60.9998C39.6832 61.3979 40.0545 61.9967 40.1665 62.6664C40.274 63.3395 40.1247 64.0284 39.748 64.5964C39.3714 65.1645 38.795 65.5702 38.1331 65.7331C38.5023 65.9223 38.8215 66.1961 39.0648 66.532C39.3081 66.868 39.4685 67.2567 39.5331 67.6664C39.6355 68.2857 39.5268 68.9214 39.2246 69.4715C38.9224 70.0215 38.4441 70.4541 37.8665 70.6998C38.2704 71.2577 38.4381 71.9524 38.3331 72.6331C38.2642 73.2791 37.9803 73.8833 37.5269 74.3487C37.0736 74.8141 36.4771 75.1138 35.8331 75.1998L34.8998 75.3998C32.4776 75.9109 30.0442 76.3109 27.5998 76.5998C24.8081 76.634 22.0191 76.4164 19.2665 75.9498C18.3406 75.7504 17.4816 75.316 16.7723 74.6884C16.063 74.0608 15.5272 73.2611 15.2165 72.3664C13.3998 68.5831 12.3998 61.4331 14.6331 59.3664C16.0486 58.4208 17.0822 57.0032 17.5498 55.3664C18.6165 52.9164 19.7331 50.0998 20.5831 47.6998C21.4331 45.2998 21.7665 44.2164 23.3498 43.6331C24.1136 43.4069 24.934 43.4706 25.6537 43.812C26.3734 44.1534 26.9418 44.7485 27.2498 45.4831C27.4884 47.1496 27.4092 48.8461 27.0165 50.4831C26.6165 53.8164 26.5998 54.5831 27.0165 55.7164L44.1331 52.8998ZM36.6665 44.9998H41.6665Z" fill="#DEB8DC"/>
<path d="M36.6665 44.9998H41.6665M44.1331 52.8998C44.5472 52.8284 44.9713 52.8402 45.3807 52.9344C45.7902 53.0286 46.1768 53.2033 46.5181 53.4484C46.8593 53.6935 47.1484 54.004 47.3685 54.3619C47.5885 54.7198 47.7351 55.118 47.7998 55.5331C47.8931 56.3531 47.6789 57.1786 47.1986 57.8498C46.7183 58.521 46.0061 58.9902 45.1998 59.1664L37.1831 60.5164C37.524 60.4608 37.8725 60.4749 38.2077 60.558C38.5429 60.6411 38.8578 60.7914 39.1331 60.9998C39.6832 61.3979 40.0545 61.9967 40.1665 62.6664C40.274 63.3395 40.1247 64.0284 39.748 64.5964C39.3714 65.1645 38.795 65.5702 38.1331 65.7331C38.5023 65.9223 38.8215 66.1961 39.0648 66.532C39.3081 66.868 39.4685 67.2567 39.5331 67.6664C39.6355 68.2857 39.5268 68.9214 39.2246 69.4715C38.9224 70.0215 38.4441 70.4541 37.8665 70.6998C38.2704 71.2577 38.4381 71.9524 38.3331 72.6331C38.2642 73.2791 37.9803 73.8833 37.5269 74.3487C37.0736 74.8141 36.4771 75.1138 35.8331 75.1998L34.8998 75.3998C32.4776 75.9109 30.0442 76.3109 27.5998 76.5998C24.8081 76.634 22.0191 76.4164 19.2665 75.9498C18.3406 75.7504 17.4816 75.316 16.7723 74.6884C16.063 74.0608 15.5272 73.2611 15.2165 72.3664C13.3998 68.5831 12.3998 61.4331 14.6331 59.3664C16.0486 58.4208 17.0822 57.0032 17.5498 55.3664C18.6165 52.9164 19.7331 50.0998 20.5831 47.6998C21.4331 45.2998 21.7665 44.2164 23.3498 43.6331C24.1136 43.4069 24.934 43.4706 25.6537 43.812C26.3734 44.1534 26.9418 44.7485 27.2498 45.4831C27.4884 47.1496 27.4092 48.8461 27.0165 50.4831C26.6165 53.8164 26.5998 54.5831 27.0165 55.7164L44.1331 52.8998Z" stroke="#523951" stroke-width="2" stroke-linecap="round" stroke-linejoin="round"/>
<path d="M26.6665 23.3335C27.8873 22.1056 29.5207 21.375 31.2498 21.2835C32.9652 21.0331 34.7123 21.4313 36.1498 22.4002" stroke="#523951" stroke-width="2" stroke-linecap="round" stroke-linejoin="round"/>
<path d="M30.8333 36.6667C32.6743 36.6667 34.1667 35.1743 34.1667 33.3333C34.1667 31.4924 32.6743 30 30.8333 30C28.9924 30 27.5 31.4924 27.5 33.3333C27.5 35.1743 28.9924 36.6667 30.8333 36.6667Z" fill="#523951"/>
<path d="M49.9998 40.0002C51.8408 40.0002 53.3332 38.5078 53.3332 36.6668C53.3332 34.8259 51.8408 33.3335 49.9998 33.3335C48.1589 33.3335 46.6665 34.8259 46.6665 36.6668C46.6665 38.5078 48.1589 40.0002 49.9998 40.0002Z" fill="#523951"/>
<path d="M48.3335 27.8002C49.943 27.1831 51.724 27.1831 53.3335 27.8002C54.9979 28.2176 56.451 29.2319 57.4168 30.6502" stroke="#523951" stroke-width="2" stroke-linecap="round" stroke-linejoin="round"/>
</svg>
