<svg width="32" height="32" viewBox="0 0 32 32" fill="none" xmlns="http://www.w3.org/2000/svg">
<circle cx="16" cy="16" r="15.5" fill="#378EE9" stroke="white"/>
<path d="M15.3086 12.75H6.95859C5.70859 12.75 4.95233 13.4938 5.00233 14.625C5.03767 15.1444 5.27292 15.63 5.65869 15.9796C6.04445 16.3292 6.55069 16.5158 7.07109 16.5H7.42734C6.96923 16.5131 6.535 16.7073 6.21984 17.04C5.90469 17.3727 5.73432 17.8169 5.74608 18.275C5.74632 18.7218 5.91504 19.1521 6.21857 19.4799C6.52211 19.8078 6.93813 20.0091 7.38359 20.0437C7.11785 20.2521 6.9173 20.5321 6.80563 20.8508C6.69396 21.1694 6.67583 21.5134 6.75338 21.842C6.83094 22.1706 7.00094 22.4702 7.2433 22.7053C7.48566 22.9404 7.79025 23.1012 8.12108 23.1687C7.91275 23.5502 7.84842 23.9938 7.93983 24.4187C8.04732 24.8301 8.29144 25.1928 8.63214 25.4471C8.97283 25.7015 9.38987 25.8326 9.81483 25.8187H14.9273C15.5958 25.8148 16.2612 25.7287 16.9086 25.5625L20.1148 24.625C20.3023 24.5687 23.0773 24.625 24.3273 24.625C26.5586 24.5375 27.1586 14.3 24.3273 14.3C24.3273 14.3 23.2961 14.3375 23.0773 14.3C22.9773 14.3 22.7523 13.875 22.1961 13.275L22.1461 13.2125C21.3336 12.3312 20.4086 11.1937 19.7586 10.55C18.1773 9 16.8648 7.675 15.9523 5.65C15.5023 4.54375 15.4461 4 14.3773 4C13.9402 4.04425 13.5384 4.25973 13.2596 4.59936C12.9809 4.93899 12.848 5.37514 12.8898 5.8125C12.9374 6.41004 13.0167 7.00463 13.1273 7.59375C13.5211 9.70625 15.2711 12.5937 15.3211 12.725L15.3086 12.75Z" fill="#D1E8FF" stroke="#004182" stroke-linecap="round" stroke-linejoin="round"/>
</svg>
