<svg width="80" height="80" viewBox="0 0 80 80" fill="none" xmlns="http://www.w3.org/2000/svg">
<path d="M9.1169 50.2833C7.5669 46.95 9.48357 45 11.7502 45C14.0169 45 15.7502 47.4667 19.0336 49.7167C22.745 52.0675 26.5782 54.2205 30.5169 56.1667" fill="#BBA9D1"/>
<path d="M9.1169 50.2833C7.5669 46.95 9.48357 45 11.7502 45C14.0169 45 15.7502 47.4667 19.0336 49.7167C22.745 52.0675 26.5782 54.2205 30.5169 56.1667" stroke="#493D57" stroke-width="2"/>
<path d="M72.7501 57.2C74.5935 59.5675 75.4745 62.5439 75.2168 65.5334C74.7799 68.7644 73.4656 71.8138 71.4167 74.35C70.7334 75.0167 46.1001 71.8834 40.3334 70.75C34.5667 69.6167 6.75008 57.3834 5.68341 56.6667C4.61675 55.95 4.51675 51.4667 7.56675 50.5167C10.6167 49.5667 17.3334 54.1 23.4501 55.1C30.4565 56.0482 37.5138 56.5714 44.5834 56.6667C48.7167 56.6667 40.1167 53.0667 38.0834 52.2667C36.0501 51.4667 32.7501 50.8167 32.0667 48.6667C31.3834 46.5167 33.6001 44.9333 35.4001 44.9333C38.7464 45.426 42.035 46.2523 45.2167 47.4C49.7017 47.2632 54.1667 48.0518 58.3334 49.7167C61.7528 51.1798 64.5205 53.8408 66.1167 57.2C66.6667 58.3334 72.1501 56.6667 72.7501 57.2Z" fill="#BBA9D1" stroke="#493D57" stroke-width="2"/>
<path d="M23.9331 17.7166C22.2078 16.0221 19.8807 15.0809 17.4624 15.0997C15.0442 15.1184 12.732 16.0955 11.0331 17.8166C9.32175 19.5493 8.35105 21.8795 8.32617 24.3147C8.30129 26.7499 9.22417 29.0994 10.8998 30.8666L24.9998 45L39.0498 30.85C40.0799 29.7946 40.8463 28.5109 41.2865 27.1034C41.7267 25.6958 41.8283 24.2042 41.5831 22.75C41.3502 21.3007 40.7751 19.9278 39.9056 18.7452C39.036 17.5626 37.8971 16.6044 36.5831 15.95C35.3148 15.3025 33.9069 14.9763 32.4831 15C31.277 15.0087 30.0846 15.2562 28.9747 15.7282C27.8648 16.2002 26.8594 16.8873 26.0165 17.75L24.9498 18.7666L23.9331 17.7166Z" fill="#DF704D" stroke="#77280C" stroke-width="2" stroke-linecap="round" stroke-linejoin="round"/>
</svg>
