<svg width="80" height="80" viewBox="0 0 80 80" fill="none" xmlns="http://www.w3.org/2000/svg">
<g clip-path="url(#clip0_2340_7507)">
<path d="M39.1502 38.3333H16.8835C13.5502 38.3333 11.5335 40.3167 11.6669 43.3333C11.7611 44.7185 12.3884 46.0132 13.4171 46.9456C14.4458 47.8779 15.7958 48.3753 17.1835 48.3333H18.1335C16.9119 48.3682 15.754 48.8861 14.9136 49.7734C14.0731 50.6606 13.6188 51.845 13.6502 53.0667C13.6508 54.2581 14.1007 55.4055 14.9102 56.2798C15.7196 57.1541 16.829 57.691 18.0169 57.7833C17.3083 58.3389 16.7735 59.0856 16.4757 59.9354C16.1779 60.7851 16.1295 61.7023 16.3363 62.5787C16.5432 63.455 16.9965 64.2538 17.6428 64.8808C18.2891 65.5077 19.1013 65.9366 19.9835 66.1167C19.428 67.1339 19.2564 68.3169 19.5002 69.45C19.7868 70.547 20.4378 71.514 21.3463 72.1924C22.2549 72.8707 23.367 73.2202 24.5002 73.1833H38.1335C39.916 73.1727 41.6904 72.9432 43.4169 72.5L51.9669 70C52.4669 69.85 59.8669 70 63.2002 70C69.1502 69.7667 70.7502 42.4667 63.2002 42.4667C63.2002 42.4667 60.4502 42.5667 59.8669 42.4667C59.6002 42.4667 59.0002 41.3333 57.5169 39.7333L57.3835 39.5667C55.2169 37.2167 52.7502 34.1833 51.0169 32.4667C46.8002 28.3333 43.3002 24.8 40.8669 19.4C39.6669 16.45 39.5169 15 36.6669 15C35.5012 15.118 34.4296 15.6926 33.6864 16.5983C32.9431 17.504 32.5885 18.667 32.7002 19.8333C32.827 21.4268 33.0384 23.0123 33.3335 24.5833C34.3835 30.2167 39.0502 37.9167 39.1835 38.2667L39.1502 38.3333Z" fill="#378FE9" stroke="#004182" stroke-width="2" stroke-linecap="round" stroke-linejoin="round"/>
</g>
<defs>
<clipPath id="clip0_2340_7507">
<rect width="80" height="80" fill="white"/>
</clipPath>
</defs>
</svg>
