<svg width="32" height="32" viewBox="0 0 32 32" fill="none" xmlns="http://www.w3.org/2000/svg">
<circle cx="16" cy="16" r="15.5" fill="#DE704B" stroke="white"/>
<path d="M15.4693 9.80018C14.3067 8.67505 12.7489 8.05114 11.1311 8.06265C9.5132 8.07417 7.96448 8.72018 6.818 9.86174C5.67152 11.0033 5.01886 12.5492 5.0004 14.167C4.98194 15.7848 5.59915 17.3453 6.71929 18.5127L16.1568 27.8752L25.5943 18.5002C26.2835 17.8051 26.7972 16.9559 27.0929 16.0227C27.3886 15.0896 27.4577 14.0995 27.2946 13.1343C27.1315 12.1692 26.7409 11.2568 26.155 10.4726C25.5691 9.68849 24.8049 9.0552 23.9255 8.62518C23.0851 8.20694 22.158 7.99281 21.2193 8.00018V8.00018C20.4055 7.99948 19.5997 8.16045 18.8487 8.47374C18.0976 8.78703 17.4163 9.2464 16.8443 9.82518L16.1568 10.5002L15.4693 9.80018Z" fill="#FEF2F0" stroke="#77280C" stroke-width="2" stroke-linecap="round" stroke-linejoin="round"/>
</svg>
