<svg width="80" height="80" viewBox="0 0 80 80" fill="none" xmlns="http://www.w3.org/2000/svg">
<path d="M62.6665 47.3334C62.2498 44.2167 61.9832 34.8834 60.5498 33.3667C57.0665 29.6834 54.1498 27.4501 52.6832 22.3834C51.7665 19.2501 51.1165 18.1334 48.2998 18.0834C47.7347 18.1374 47.1859 18.3032 46.6854 18.5712C46.1849 18.8392 45.7427 19.2041 45.3845 19.6445C45.0262 20.0849 44.7591 20.5922 44.5987 21.1368C44.4382 21.6814 44.3876 22.2524 44.4498 22.8167C44.4941 24.2397 44.6221 25.6588 44.8332 27.0667C45.6257 30.9962 46.7405 34.8537 48.1665 38.6001L21.3498 18.3334C19.4332 16.9001 16.6665 16.2501 14.7998 18.7501C12.9332 21.2501 14.4332 23.5501 16.3498 25.0001L29.6832 35.0001L33.6665 38.0001L12.3498 22.0167C10.4332 20.5834 7.6665 19.9334 5.78317 22.4334C3.89984 24.9334 5.43317 27.2334 7.33317 28.6834L20.6665 38.6834L28.6665 44.7001L11.3332 31.6667C9.4165 30.2334 6.64984 29.5834 4.7665 32.0834C2.88317 34.5834 4.4165 36.9001 6.33317 38.3334L19.6665 48.3334L26.3332 53.3334L12.9998 43.3334C11.0832 41.9001 8.3665 41.1834 6.5665 43.5834C4.7665 45.9834 6.08317 48.5834 7.99984 50.0001L32.2165 67.8001C33.9688 69.1025 35.9651 70.0393 38.0867 70.5547C40.2084 71.0701 42.412 71.1535 44.5665 70.8001" fill="#49992A"/>
<path d="M62.6665 47.3334C62.2498 44.2167 61.9832 34.8834 60.5498 33.3667C57.0665 29.6834 54.1498 27.4501 52.6832 22.3834C51.7665 19.2501 51.1165 18.1334 48.2998 18.0834C47.7347 18.1374 47.1859 18.3032 46.6854 18.5712C46.1849 18.8392 45.7427 19.2041 45.3845 19.6445C45.0262 20.0849 44.7591 20.5922 44.5987 21.1368C44.4382 21.6814 44.3876 22.2524 44.4498 22.8167C44.4941 24.2397 44.6221 25.6588 44.8332 27.0667C45.6257 30.9962 46.7405 34.8537 48.1665 38.6001L21.3498 18.3334C19.4332 16.9001 16.6665 16.2501 14.7998 18.7501C12.9332 21.2501 14.4332 23.5501 16.3498 25.0001L29.6832 35.0001L33.6665 38.0001L12.3498 22.0167C10.4332 20.5834 7.6665 19.9334 5.78317 22.4334C3.89984 24.9334 5.43317 27.2334 7.33317 28.6834L20.6665 38.6834L28.6665 44.7001L11.3332 31.6667C9.4165 30.2334 6.64984 29.5834 4.7665 32.0834C2.88317 34.5834 4.4165 36.9001 6.33317 38.3334L19.6665 48.3334L26.3332 53.3334L12.9998 43.3334C11.0832 41.9001 8.3665 41.1834 6.5665 43.5834C4.7665 45.9834 6.08317 48.5834 7.99984 50.0001L32.2165 67.8001C33.9688 69.1025 35.9651 70.0393 38.0867 70.5547C40.2084 71.0701 42.412 71.1535 44.5665 70.8001" stroke="#165209" stroke-width="2" stroke-linecap="round" stroke-linejoin="round"/>
<path d="M76.2837 53.1338C75.0834 51.8612 74.1635 50.3509 73.5837 48.7005C73.2837 47.4505 73.2003 46.1505 72.967 44.8838C72.6003 42.9338 72.2837 40.0005 70.8503 38.4838C67.4168 34.3922 64.9654 29.5691 63.6837 24.3838C62.767 21.2505 62.117 20.1338 59.3003 20.0838C58.7359 20.1357 58.1875 20.2996 57.6871 20.5659C57.1867 20.8321 56.7443 21.1954 56.3859 21.6345C56.0275 22.0736 55.7601 22.5798 55.5995 23.1234C55.4389 23.6669 55.3882 24.2371 55.4503 24.8005C55.4946 26.2234 55.6226 27.6426 55.8337 29.0505C56.8837 34.5505 58.017 39.0505 58.1503 39.3171L32.7503 20.3171C30.8337 18.8671 28.067 18.2171 26.1837 20.7171C24.3003 23.2171 25.817 25.5338 27.7337 26.9671L41.067 36.9671L45.0003 40.0005L23.7337 23.9671C21.817 22.5338 19.0503 21.8838 17.1837 24.3838C15.317 26.8838 16.817 29.1838 18.7337 30.6338L32.067 40.6338L40.0003 46.6671L22.7337 33.6338C20.817 32.1838 18.0337 31.5505 16.167 34.0338C14.3003 36.5171 15.8003 38.8505 17.717 40.3005L31.0503 50.3005L37.717 55.3005L24.3837 45.3005C22.467 43.8671 19.7337 43.1505 17.9337 45.5505C16.1337 47.9505 17.4503 50.5505 19.367 51.9671L43.217 69.8005C45.1872 71.2693 47.4678 72.267 49.8837 72.7172C50.9503 72.9172 52.0837 73.0172 53.3337 73.2505C55.1244 73.5214 56.8586 74.0845 58.467 74.9172C59.585 75.4525 60.8621 75.5535 62.0503 75.2005C66.2148 73.7511 69.849 71.0863 72.4837 67.5505C74.9886 64.1579 76.4274 60.0967 76.617 55.8838C76.7746 54.9542 76.6588 53.9988 76.2837 53.1338Z" fill="#6DAE4F" stroke="#165209" stroke-width="2" stroke-linecap="round" stroke-linejoin="round"/>
<path d="M20 2.74959L21.3167 8.61626M38.6667 9.99959L33.7667 13.3329M31.1333 1.66626L27.55 10.9996" stroke="#165209" stroke-width="2" stroke-linecap="round" stroke-linejoin="round"/>
</svg>
