<svg width="80" height="80" viewBox="0 0 80 80" fill="none" xmlns="http://www.w3.org/2000/svg">
<g clip-path="url(#clip0_2340_7518)">
<path d="M38.1666 24.8C35.0663 21.7996 30.9123 20.1359 26.598 20.1666C22.2837 20.1973 18.1538 21.92 15.0965 24.9642C12.0393 28.0083 10.2988 32.1308 10.2496 36.4449C10.2004 40.7591 11.8463 44.9202 14.8333 48.0333L40 73L65.1666 48C67.0045 46.1465 68.3744 43.8818 69.1629 41.3935C69.9514 38.9052 70.1358 36.2649 69.7009 33.6911C69.266 31.1174 68.2242 28.6842 66.6618 26.5932C65.0995 24.5022 63.0615 22.8134 60.7166 21.6667C58.4756 20.5514 56.0031 19.9803 53.5 20V20C51.3299 19.9981 49.1811 20.4274 47.1784 21.2628C45.1756 22.0983 43.3587 23.3233 41.8333 24.8667L40 26.6667L38.1666 24.8Z" fill="#DF704D" stroke="#77280C" stroke-width="2" stroke-linecap="round" stroke-linejoin="round"/>
</g>
<defs>
<clipPath id="clip0_2340_7518">
<rect width="80" height="80" fill="white"/>
</clipPath>
</defs>
</svg>
