<svg width="32" height="32" viewBox="0 0 32 32" fill="none" xmlns="http://www.w3.org/2000/svg">
<circle cx="16" cy="16" r="15.5" fill="#F5BB5C" stroke="white"/>
<path d="M18.7114 24C18.7114 21.9833 18.9347 21.5167 18.9347 21.5167C19.1153 20.8726 19.4723 20.2944 19.9637 19.85C20.214 19.6122 20.447 19.3559 20.6606 19.0833C21.0796 18.5398 21.4122 17.9324 21.646 17.2833C21.8747 16.6229 21.9943 15.9282 21.9999 15.2278V15.1944C22.0072 13.5599 21.3781 11.9893 20.251 10.8278C19.124 9.66623 17.591 9.00882 15.9892 9C14.3887 9.01321 12.8589 9.67426 11.7359 10.8379C10.6129 12.0015 9.98856 13.5725 10.0002 15.2056V15.2389C10.0058 15.9393 10.1254 16.634 10.3541 17.2944C10.5879 17.9435 10.9205 18.5509 11.3395 19.0944C11.5531 19.3671 11.786 19.6233 12.0364 19.8611C12.5278 20.3055 12.8848 20.8837 13.0654 21.5278C13.0654 21.5278 13.2669 21.9944 13.2669 24" fill="#FFE6BE"/>
<path d="M18.7114 24C18.7114 21.9833 18.9347 21.5167 18.9347 21.5167C19.1153 20.8726 19.4723 20.2944 19.9637 19.85C20.214 19.6122 20.447 19.3559 20.6606 19.0833C21.0796 18.5398 21.4122 17.9324 21.646 17.2833C21.8747 16.6229 21.9943 15.9282 21.9999 15.2278V15.1944C22.0072 13.5599 21.3781 11.9893 20.251 10.8278C19.124 9.66623 17.591 9.00882 15.9892 9C14.3887 9.01321 12.8589 9.67426 11.7359 10.8379C10.6129 12.0015 9.98856 13.5725 10.0002 15.2056V15.2389C10.0058 15.9393 10.1254 16.634 10.3541 17.2944C10.5879 17.9435 10.9205 18.5509 11.3395 19.0944C11.5531 19.3671 11.786 19.6233 12.0364 19.8611C12.5278 20.3055 12.8848 20.8837 13.0654 21.5278C13.0654 21.5278 13.2669 21.9944 13.2669 24" stroke="#5D3B01" stroke-linecap="round" stroke-linejoin="round"/>
<path d="M16 5V7.04429M10 6.63714L11.21 8L10 6.63714ZM22 6.63714L20.79 8L22 6.63714Z" stroke="#5D3B01" stroke-linecap="round" stroke-linejoin="round"/>
<path d="M17.8 27H14.2C13.8817 26.9785 13.5849 26.8756 13.3644 26.7103C13.1439 26.5449 13.0145 26.3281 13 26.1V24H19V26.1C18.9855 26.3281 18.8561 26.5449 18.6356 26.7103C18.4151 26.8756 18.1183 26.9785 17.8 27Z" fill="#C07800" stroke="#5D3B01" stroke-linecap="round" stroke-linejoin="round"/>
</svg>
