<svg width="80" height="80" viewBox="0 0 80 80" fill="none" xmlns="http://www.w3.org/2000/svg">
<path d="M48.3332 63.3333C48.3332 57.2833 49.0165 55.8832 49.0165 55.8832C49.5696 53.9509 50.6623 52.2164 52.1665 50.8833C52.9329 50.1698 53.646 49.4011 54.2998 48.5833C55.5825 46.9527 56.6006 45.1304 57.3165 43.1833C58.0164 41.2018 58.3825 39.1179 58.3998 37.0166V36.9166C58.422 32.0129 56.4964 27.3011 53.0462 23.8165C49.596 20.3319 44.9035 18.3597 39.9998 18.3333C35.1006 18.3729 30.4176 20.356 26.9798 23.8469C23.5421 27.3377 21.631 32.0507 21.6665 36.9499V37.0499C21.6838 39.1513 22.0499 41.2352 22.7498 43.2166C23.4658 45.1637 24.4838 46.986 25.7665 48.6166C26.4204 49.4344 27.1334 50.2031 27.8998 50.9166C29.404 52.2497 30.4967 53.9842 31.0498 55.9166C31.0498 55.9166 31.6665 57.3166 31.6665 63.3333" fill="#F5BB5C"/>
<path d="M48.3332 63.3333C48.3332 57.2833 49.0165 55.8832 49.0165 55.8832C49.5696 53.9509 50.6623 52.2164 52.1665 50.8833C52.9329 50.1698 53.646 49.4011 54.2998 48.5833C55.5825 46.9527 56.6006 45.1304 57.3165 43.1833C58.0164 41.2018 58.3825 39.1179 58.3998 37.0166V36.9166C58.422 32.0129 56.4964 27.3011 53.0462 23.8165C49.596 20.3319 44.9035 18.3597 39.9998 18.3333C35.1006 18.3729 30.4176 20.356 26.9798 23.8469C23.5421 27.3377 21.631 32.0507 21.6665 36.9499V37.0499C21.6838 39.1513 22.0499 41.2352 22.7498 43.2166C23.4658 45.1637 24.4838 46.986 25.7665 48.6166C26.4204 49.4344 27.1334 50.2031 27.8998 50.9166C29.404 52.2497 30.4967 53.9842 31.0498 55.9166C31.0498 55.9166 31.6665 57.3166 31.6665 63.3333" stroke="#5D3B01" stroke-width="2" stroke-linecap="round" stroke-linejoin="round"/>
<path d="M44.9998 73.3334H34.9998C34.1156 73.2499 33.2913 72.8498 32.6788 72.2066C32.0663 71.5635 31.7068 70.7207 31.6665 69.8334V61.6667H48.3332V69.8334C48.2929 70.7207 47.9334 71.5635 47.3209 72.2066C46.7083 72.8498 45.8841 73.2499 44.9998 73.3334Z" fill="#C07800" stroke="#5D3B01" stroke-width="2" stroke-linecap="round" stroke-linejoin="round"/>
<path d="M40 3.33325V11.2833M20 9.69992L24.0333 14.9999L20 9.69992ZM60 9.69992L55.9667 14.9999L60 9.69992Z" stroke="#5D3B01" stroke-width="1.91" stroke-linecap="round" stroke-linejoin="round"/>
</svg>
