<svg width="41" height="39" viewBox="0 0 41 39" fill="none" xmlns="http://www.w3.org/2000/svg">
<g clip-path="url(#clip0_2362_1285)">
<path d="M38.7463 23.481C38.9323 23.4807 39.1165 23.5155 39.2883 23.5833C39.4601 23.6511 39.6161 23.7506 39.7473 23.8761C39.8784 24.0016 39.9822 24.1505 40.0525 24.3143C40.1228 24.4781 40.1584 24.6535 40.1571 24.8304V30.9288C40.1584 31.1049 40.1232 31.2796 40.0535 31.4428C39.9838 31.6059 39.8809 31.7544 39.7508 31.8798C39.6207 32.0051 39.4659 32.1048 39.2952 32.1732C39.1246 32.2416 38.9414 32.2773 38.7563 32.2783C38.5711 32.2773 38.3879 32.2416 38.2173 32.1732C38.0466 32.1048 37.8918 32.0051 37.7617 31.8798C37.6316 31.7544 37.5288 31.6059 37.4591 31.4428C37.3893 31.2796 37.3541 31.1049 37.3555 30.9288V28.7875C33.7114 34.6042 26.9475 38.7078 19.6594 38.7078C10.8344 38.7078 3.43819 33.5288 0.230367 25.5461C0.0956796 25.2135 0.104165 24.8438 0.253986 24.5172C0.403807 24.1905 0.682902 23.9331 1.03082 23.8007C1.75123 23.5323 2.56369 23.8769 2.84385 24.5716C5.64544 31.5417 12.0251 36.0108 19.6594 36.0108C26.4052 36.0108 32.7068 31.8576 35.6425 26.2009L32.6988 26.2199C32.5136 26.2201 32.3302 26.1857 32.1591 26.1184C31.9879 26.0512 31.8324 25.9526 31.7014 25.8281C31.5703 25.7036 31.4664 25.5558 31.3954 25.3932C31.3245 25.2305 31.288 25.0561 31.288 24.8799C31.2832 24.5244 31.427 24.1815 31.6878 23.9267C31.9485 23.6719 32.305 23.5259 32.6788 23.5209L38.7463 23.481ZM20.636 0.640625C29.457 0.640625 36.8552 5.81967 40.063 13.8024C40.1977 14.135 40.1892 14.5046 40.0394 14.8313C39.8896 15.158 39.6105 15.4154 39.2625 15.5477C39.0904 15.6116 38.9066 15.6423 38.7219 15.638C38.5372 15.6338 38.3552 15.5946 38.1866 15.5229C38.0179 15.4512 37.8659 15.3483 37.7393 15.2202C37.6128 15.0922 37.5143 14.9415 37.4495 14.7769C34.6479 7.80678 28.2683 3.33769 20.634 3.33769C13.8881 3.33769 7.58655 7.49082 4.65088 13.1476L7.59455 13.1286C7.77973 13.1283 7.96314 13.1628 8.13429 13.23C8.30545 13.2973 8.46099 13.3959 8.59202 13.5204C8.72305 13.6448 8.827 13.7926 8.89792 13.9553C8.96885 14.118 9.00535 14.2924 9.00535 14.4685C9.01016 14.8241 8.86639 15.167 8.60562 15.4218C8.34484 15.6766 7.98839 15.8225 7.61456 15.8275L1.54511 15.8675C1.35909 15.8678 1.17486 15.833 1.00305 15.7652C0.831243 15.6973 0.675255 15.5978 0.544091 15.4724C0.412928 15.3469 0.309187 15.198 0.238855 15.0342C0.168522 14.8704 0.132992 14.695 0.134313 14.518V8.41966C0.134313 7.67354 0.760669 7.07018 1.53511 7.07018C2.30755 7.07018 2.9359 7.67354 2.9359 8.41966V10.5609C6.57998 4.74427 13.3438 0.640625 20.632 0.640625" fill="#111111"/>
</g>
<defs>
<clipPath id="clip0_2362_1285">
<rect width="40.0227" height="38.0672" fill="white" transform="translate(0.134277 0.640625)"/>
</clipPath>
</defs>
</svg>
