<svg width="40" height="40" viewBox="0 0 40 40" fill="none" xmlns="http://www.w3.org/2000/svg">
<g clip-path="url(#clip0_2362_1045)">
<path d="M38.5895 24C38.7755 23.9997 38.9596 24.0363 39.1313 24.1075C39.303 24.1788 39.4589 24.2834 39.59 24.4152C39.7211 24.547 39.8248 24.7035 39.8951 24.8756C39.9654 25.0478 40.0009 25.2321 39.9995 25.418V31.826C40.0009 32.0111 39.9657 32.1946 39.896 32.366C39.8263 32.5375 39.7236 32.6935 39.5935 32.8252C39.4635 32.957 39.3088 33.0617 39.1382 33.1336C38.9677 33.2054 38.7846 33.243 38.5995 33.244C38.4145 33.243 38.2314 33.2054 38.0609 33.1336C37.8903 33.0617 37.7356 32.957 37.6056 32.8252C37.4755 32.6935 37.3727 32.5375 37.3031 32.366C37.2334 32.1946 37.1982 32.0111 37.1995 31.826V29.576C33.5575 35.688 26.7975 40 19.5135 40C10.6935 40 3.30155 34.558 0.0955472 26.17C-0.0390641 25.8205 -0.0305834 25.4321 0.119152 25.0888C0.268888 24.7455 0.547824 24.4751 0.895547 24.336C1.61555 24.054 2.42755 24.416 2.70755 25.146C5.50755 32.47 11.8835 37.166 19.5135 37.166C26.2555 37.166 32.5535 32.802 35.4875 26.858L32.5455 26.878C32.3605 26.8783 32.1772 26.842 32.0061 26.7714C31.8351 26.7008 31.6796 26.5971 31.5486 26.4663C31.4177 26.3355 31.3138 26.1802 31.2429 26.0093C31.172 25.8383 31.1355 25.6551 31.1355 25.47C31.1307 25.0964 31.2744 24.7361 31.5351 24.4684C31.7957 24.2006 32.1519 24.0473 32.5255 24.042L38.5895 24ZM20.4895 0C29.3055 0 36.6995 5.442 39.9055 13.83C40.0402 14.1795 40.0317 14.5679 39.8819 14.9112C39.7322 15.2545 39.4533 15.5249 39.1055 15.664C38.9335 15.7311 38.7498 15.7633 38.5652 15.7589C38.3806 15.7544 38.1988 15.7133 38.0302 15.6379C37.8616 15.5625 37.7097 15.4544 37.5832 15.3199C37.4567 15.1853 37.3583 15.0269 37.2935 14.854C34.4935 7.53 28.1175 2.834 20.4875 2.834C13.7455 2.834 7.44755 7.198 4.51355 13.142L7.45555 13.122C7.64062 13.1217 7.82392 13.158 7.99498 13.2286C8.16604 13.2992 8.32149 13.4029 8.45245 13.5337C8.5834 13.6645 8.68729 13.8198 8.75818 13.9907C8.82906 14.1617 8.86555 14.3449 8.86555 14.53C8.87035 14.9036 8.72666 15.2639 8.46604 15.5316C8.20541 15.7994 7.84916 15.9527 7.47555 15.958L1.40955 16C1.22363 16.0003 1.03951 15.9637 0.867794 15.8925C0.696081 15.8212 0.540182 15.7166 0.409093 15.5848C0.278004 15.453 0.174322 15.2965 0.10403 15.1244C0.0337372 14.9522 -0.00177336 14.7679 -0.000452756 14.582V8.174C-0.000452756 7.39 0.625547 6.756 1.39955 6.756C2.17155 6.756 2.79955 7.39 2.79955 8.174V10.424C6.44155 4.312 13.2015 0 20.4855 0" fill="#111111"/>
</g>
<defs>
<clipPath id="clip0_2362_1045">
<rect width="40" height="40" fill="white" transform="translate(-0.000488281)"/>
</clipPath>
</defs>
</svg>
