<svg width="40" height="40" viewBox="0 0 40 40" fill="none" xmlns="http://www.w3.org/2000/svg">
<g clip-path="url(#clip0_2362_1432)">
<path d="M38.59 24C38.7759 23.9997 38.9601 24.0363 39.1318 24.1075C39.3035 24.1788 39.4594 24.2834 39.5905 24.4152C39.7216 24.547 39.8253 24.7035 39.8956 24.8756C39.9658 25.0478 40.0014 25.2321 40 25.418V31.826C40.0014 32.0111 39.9662 32.1946 39.8965 32.366C39.8268 32.5375 39.724 32.6935 39.594 32.8252C39.464 32.957 39.3093 33.0617 39.1387 33.1336C38.9682 33.2054 38.7851 33.243 38.6 33.244C38.415 33.243 38.2319 33.2054 38.0614 33.1336C37.8908 33.0617 37.7361 32.957 37.6061 32.8252C37.476 32.6935 37.3732 32.5375 37.3036 32.366C37.2339 32.1946 37.1987 32.0111 37.2 31.826V29.576C33.558 35.688 26.798 40 19.514 40C10.694 40 3.30204 34.558 0.0960355 26.17C-0.0385758 25.8205 -0.0300951 25.4321 0.119641 25.0888C0.269377 24.7455 0.548313 24.4751 0.896036 24.336C1.61604 24.054 2.42804 24.416 2.70804 25.146C5.50804 32.47 11.884 37.166 19.514 37.166C26.256 37.166 32.554 32.802 35.488 26.858L32.546 26.878C32.361 26.8783 32.1777 26.842 32.0066 26.7714C31.8355 26.7008 31.6801 26.5971 31.5491 26.4663C31.4182 26.3355 31.3143 26.1802 31.2434 26.0093C31.1725 25.8383 31.136 25.6551 31.136 25.47C31.1312 25.0964 31.2749 24.7361 31.5355 24.4684C31.7962 24.2006 32.1524 24.0473 32.526 24.042L38.59 24ZM20.49 0C29.306 0 36.7 5.442 39.906 13.83C40.0406 14.1795 40.0322 14.5679 39.8824 14.9112C39.7327 15.2545 39.4538 15.5249 39.106 15.664C38.934 15.7311 38.7503 15.7633 38.5657 15.7589C38.3811 15.7544 38.1992 15.7133 38.0307 15.6379C37.8621 15.5625 37.7101 15.4544 37.5837 15.3199C37.4572 15.1853 37.3588 15.0269 37.294 14.854C34.494 7.53 28.118 2.834 20.488 2.834C13.746 2.834 7.44804 7.198 4.51404 13.142L7.45604 13.122C7.64111 13.1217 7.82441 13.158 7.99547 13.2286C8.16653 13.2992 8.32198 13.4029 8.45294 13.5337C8.58389 13.6645 8.68778 13.8198 8.75867 13.9907C8.82955 14.1617 8.86604 14.3449 8.86604 14.53C8.87084 14.9036 8.72715 15.2639 8.46653 15.5316C8.2059 15.7994 7.84965 15.9527 7.47604 15.958L1.41004 16C1.22412 16.0003 1.04 15.9637 0.868282 15.8925C0.696569 15.8212 0.54067 15.7166 0.409581 15.5848C0.278493 15.453 0.17481 15.2965 0.104518 15.1244C0.0342255 14.9522 -0.00128508 14.7679 3.55253e-05 14.582V8.174C3.55253e-05 7.39 0.626036 6.756 1.40004 6.756C2.17204 6.756 2.80004 7.39 2.80004 8.174V10.424C6.44204 4.312 13.202 0 20.486 0" fill="#111111"/>
</g>
<defs>
<clipPath id="clip0_2362_1432">
<rect width="40" height="40" fill="white"/>
</clipPath>
</defs>
</svg>
