<svg width="39" height="39" viewBox="0 0 39 39" fill="none" xmlns="http://www.w3.org/2000/svg">
<path d="M2.73825 18.7131V32.3354H8.8017L9.10787 32.3697C14.7371 33.6183 18.4672 34.5186 20.3262 35.0763C22.7957 35.8167 23.7162 35.9975 25.3911 36.1041C26.6438 36.1859 28.0666 35.7272 28.715 35.0991C29.0732 34.7527 29.3414 34.0408 29.4474 32.9369C29.4694 32.7054 29.5564 32.4838 29.6993 32.2952C29.8423 32.1067 30.0359 31.9582 30.2599 31.8653C30.7582 31.6597 31.1724 31.3247 31.5186 30.8375C31.8388 30.3921 32.0469 29.5622 32.0849 28.3612C32.0916 28.1404 32.1574 27.9249 32.2761 27.735C32.3948 27.5452 32.5625 27.3873 32.7633 27.2763C33.928 26.6349 34.5043 25.9116 34.6244 25.0627C34.7564 24.1243 34.4363 23.068 33.5978 21.865C33.4011 21.5829 33.3278 21.2389 33.3936 20.9062C33.4593 20.5735 33.659 20.2784 33.95 20.0835C34.7524 19.5467 35.1927 18.8006 35.3028 17.7424C35.4789 16.056 34.3482 14.8093 31.7888 14.5599C29.5092 14.3455 27.2076 14.528 24.9969 15.0986C24.7461 15.1609 24.4818 15.1538 24.2352 15.0782C23.9885 15.0025 23.7696 14.8614 23.6044 14.6714C23.4392 14.4815 23.3344 14.2506 23.3025 14.0059C23.2705 13.7613 23.3127 13.513 23.424 13.2904C24.4246 11.2766 24.9809 9.61501 25.111 8.32833C25.2811 6.62102 24.8668 5.38384 23.8983 4.36363C23.1639 3.59087 21.9892 3.14929 21.5489 3.24065C20.9686 3.35866 20.5904 3.67842 20.0981 4.7976C19.808 5.45997 19.6679 6.02336 19.4277 7.33859C19.1976 8.58719 19.0715 9.15059 18.8094 9.88909C18.0189 12.1274 16.0798 14.4476 13.4764 16.0484C11.6517 17.1689 9.67419 18.0463 7.59901 18.656C7.46937 18.694 7.33445 18.7132 7.19878 18.7131H2.73825ZM2.6542 34.9297C2.00784 34.9468 1.42751 34.8098 0.941229 34.4862C0.320876 34.0732 0.0287104 33.4222 0.022707 32.6723L0.0287104 18.734C-0.0393283 17.9917 0.190802 17.3103 0.735112 16.804C1.2454 16.3282 1.91178 16.1036 2.61618 16.1188H6.98867C8.75739 15.5828 10.4437 14.8263 12.0035 13.869C14.1007 12.5785 15.6456 10.7285 16.2359 9.06113C16.438 8.48631 16.5461 8.01047 16.7502 6.8913C17.0264 5.38955 17.1985 4.69101 17.5947 3.79263C18.4152 1.92353 19.4918 1.00991 20.9766 0.703471C22.4374 0.40274 24.5647 1.20405 25.9094 2.62016C27.4003 4.18852 28.0586 6.15089 27.8145 8.57577C27.7104 9.61881 27.4063 10.7856 26.906 12.0856C28.6145 11.8487 30.3472 11.8129 32.0649 11.979C36.0812 12.3692 38.3365 14.8569 38.0083 18.0012C37.8642 19.3564 37.3479 20.5079 36.4694 21.412C37.2078 22.7653 37.502 24.1034 37.3179 25.4091C37.1058 26.9127 36.2253 28.1652 34.7604 29.1378C34.6464 30.4568 34.3282 31.5094 33.7639 32.2974C33.3192 32.934 32.7391 33.4748 32.0609 33.8848C31.8448 35.1867 31.3905 36.205 30.6481 36.9206C29.4174 38.1121 27.2182 38.8221 25.209 38.6927C23.3019 38.5708 22.1733 38.35 19.5118 37.5506C17.7568 37.0234 14.1227 36.1479 8.64561 34.9297H2.6542ZM6.05814 18.1211C6.05761 17.9508 6.09242 17.7821 6.16057 17.6247C6.22872 17.4672 6.32887 17.3241 6.45528 17.2035C6.58169 17.0829 6.73188 16.9872 6.89724 16.9219C7.0626 16.8566 7.23987 16.823 7.41891 16.823C7.59761 16.8235 7.77446 16.8575 7.93935 16.923C8.10425 16.9885 8.25396 17.0843 8.37995 17.2048C8.50594 17.3253 8.60573 17.4683 8.67363 17.6255C8.74153 17.7828 8.77621 17.9512 8.77568 18.1211V32.7351C8.77594 32.9051 8.74101 33.0735 8.67286 33.2306C8.60472 33.3877 8.50471 33.5305 8.37853 33.6509C8.25236 33.7713 8.1025 33.8668 7.9375 33.9321C7.77251 33.9973 7.59561 34.0311 7.41691 34.0313C7.23821 34.0311 7.06131 33.9973 6.89632 33.9321C6.73132 33.8668 6.58146 33.7713 6.45528 33.6509C6.32911 33.5305 6.2291 33.3877 6.16095 33.2306C6.09281 33.0735 6.05787 32.9051 6.05814 32.7351V18.1211Z" fill="#111111"/>
</svg>
