<svg width="40" height="40" viewBox="0 0 40 40" fill="none" xmlns="http://www.w3.org/2000/svg">
<path d="M19.9995 0C30.6835 0 39.9995 8.82 39.9995 19C39.9995 29.008 30.8935 36.884 19.9995 36.884C17.6695 36.8852 15.354 36.5167 13.1395 35.792C12.2115 36.692 11.8935 36.998 9.92351 38.898C8.50351 39.97 7.16751 40.334 5.97351 39.658C4.76951 38.978 4.40751 37.654 4.65351 35.91L5.45351 31.272C1.97951 28.004 -0.000488281 23.684 -0.000488281 19C-0.000488281 8.82 9.31351 0 19.9995 0ZM19.9995 2.8C10.8275 2.8 2.79951 10.4 2.79951 19C2.79951 23.09 4.62351 26.856 7.83951 29.66L7.87951 29.694L8.47351 30.21L8.33951 30.99L8.06351 32.598L7.98951 33.026L7.41951 36.342C7.3859 36.5652 7.36586 36.7903 7.35951 37.016V37.206C7.35951 37.216 7.35751 37.22 7.35551 37.222C7.36951 37.202 7.64151 37.116 8.10751 36.776L12.4475 32.564L13.2755 32.876C15.4264 33.6785 17.7038 34.0884 19.9995 34.086C29.4315 34.086 37.1995 27.366 37.1995 19C37.1995 10.402 29.1715 2.8 19.9995 2.8ZM10.4535 15.626C10.8564 15.6113 11.2582 15.6779 11.6348 15.822C12.0113 15.966 12.355 16.1845 12.6453 16.4643C12.9355 16.7441 13.1664 17.0796 13.3241 17.4507C13.4818 17.8218 13.563 18.2208 13.563 18.624C13.563 19.0272 13.4818 19.4262 13.3241 19.7973C13.1664 20.1684 12.9355 20.5039 12.6453 20.7837C12.355 21.0635 12.0113 21.282 11.6348 21.426C11.2582 21.5701 10.8564 21.6367 10.4535 21.622C9.67734 21.5936 8.94242 21.2654 8.40334 20.7062C7.86426 20.1471 7.56304 19.4007 7.56304 18.624C7.56304 17.8473 7.86426 17.1009 8.40334 16.5418C8.94242 15.9826 9.67734 15.6544 10.4535 15.626ZM20.4495 15.626C20.8524 15.6113 21.2542 15.6779 21.6308 15.822C22.0073 15.966 22.351 16.1845 22.6413 16.4643C22.9315 16.7441 23.1624 17.0796 23.3201 17.4507C23.4778 17.8218 23.559 18.2208 23.559 18.624C23.559 19.0272 23.4778 19.4262 23.3201 19.7973C23.1624 20.1684 22.9315 20.5039 22.6413 20.7837C22.351 21.0635 22.0073 21.282 21.6308 21.426C21.2542 21.5701 20.8524 21.6367 20.4495 21.622C19.6733 21.5936 18.9384 21.2654 18.3993 20.7062C17.8603 20.1471 17.559 19.4007 17.559 18.624C17.559 17.8473 17.8603 17.1009 18.3993 16.5418C18.9384 15.9826 19.6733 15.6544 20.4495 15.626ZM30.4435 15.626C30.8464 15.6113 31.2482 15.6779 31.6248 15.822C32.0013 15.966 32.345 16.1845 32.6353 16.4643C32.9255 16.7441 33.1564 17.0796 33.3141 17.4507C33.4718 17.8218 33.553 18.2208 33.553 18.624C33.553 19.0272 33.4718 19.4262 33.3141 19.7973C33.1564 20.1684 32.9255 20.5039 32.6353 20.7837C32.345 21.0635 32.0013 21.282 31.6248 21.426C31.2482 21.5701 30.8464 21.6367 30.4435 21.622C29.6673 21.5936 28.9324 21.2654 28.3933 20.7062C27.8543 20.1471 27.553 19.4007 27.553 18.624C27.553 17.8473 27.8543 17.1009 28.3933 16.5418C28.9324 15.9826 29.6673 15.6544 30.4435 15.626Z" fill="#111111"/>
</svg>
