<svg width="39" height="40" viewBox="0 0 39 40" fill="none" xmlns="http://www.w3.org/2000/svg">
<path fill-rule="evenodd" clip-rule="evenodd" d="M30.614 1.87146C31.406 2.60546 31.924 4.13746 32.026 5.06146C33.206 5.79346 34.602 7.26946 34.724 10.0495C36.83 11.5115 38.43 14.2155 36.432 18.1695C37.592 19.2495 38.886 22.5455 37.222 25.2015C35.284 28.3055 31.072 28.5215 26.874 27.9675C27.994 31.0975 28.414 33.9855 26.642 36.9435C24.88 39.5675 22.448 39.9935 21.616 39.9935C19.34 39.9935 17.78 38.0355 17.148 35.4275C16.918 34.6995 16.656 32.9795 16.554 32.5275C16.024 29.6475 14.242 27.3435 11.214 25.6215C9.86687 24.8477 8.44414 24.2137 6.968 23.7295H2.288C1.246 23.7295 0 22.6755 0 21.3995V6.12746C0.148 4.68346 0.95 3.96346 2.404 3.96346H8.624C11.352 3.34346 14.072 2.67946 16.782 1.97346C19.4 1.26746 19.974 1.03346 21.806 0.529459C25.912 -0.534541 28.762 0.0514592 30.614 1.87146ZM25.85 2.71746C24.212 2.71746 22.138 3.22146 21.218 3.51546C20.894 3.61746 20.326 3.78546 19.728 3.95746L19.128 4.13146L18.552 4.29546L17.432 4.61146C17.432 4.61146 14.612 5.36746 9.086 6.65146C8.88 6.67546 8.77 6.69146 8.754 6.69546V21.4555C11.776 22.6195 14.13 24.0315 15.814 25.6915C18.342 28.1795 19.044 30.4275 19.458 33.3055C19.694 34.7515 20.076 35.9175 20.652 36.7155C20.8174 36.9546 21.0583 37.1313 21.336 37.2175C21.63 37.3115 22.036 37.3175 22.902 36.8495C23.768 36.3775 24.882 35.1435 25.092 33.3055C25.232 31.5195 24.752 29.9715 24.108 28.3435C23.8857 27.7888 23.6476 27.2406 23.394 26.6995C22.958 25.8735 23.614 24.5015 24.966 24.7995C26.778 25.3095 31.274 25.9995 33.81 24.7995C35.284 23.9455 35.65 22.5675 34.904 20.6675C34.6574 20.2319 34.3197 19.8546 33.914 19.5615C33.574 19.3575 32.91 18.4735 33.708 17.4715C34.5 16.2015 35.658 13.6155 32.728 12.0035C32.5235 11.8911 32.3527 11.7262 32.2332 11.5258C32.1137 11.3254 32.0497 11.0968 32.048 10.8635C32.008 10.3155 32.096 8.28346 30.588 7.37546C30.228 7.18146 29.794 7.02146 29.548 6.55546C29.392 6.24746 29.342 5.49946 29.342 5.49946C29.136 4.23546 28.852 3.05546 25.85 2.71746ZM6.038 6.68946H2.722V21.0035H6.038V6.68946Z" fill="#111111" fill-opacity="0.89"/>
</svg>
