<svg width="39" height="39" viewBox="0 0 39 39" fill="none" xmlns="http://www.w3.org/2000/svg">
<path fill-rule="evenodd" clip-rule="evenodd" d="M30.6861 2.42166C31.4785 3.12019 31.9968 4.57816 32.0989 5.45752C33.2796 6.15415 34.6764 7.55883 34.7984 10.2045C36.9056 11.5959 38.5065 14.1692 36.5074 17.9321C37.6681 18.96 38.9628 22.0967 37.2978 24.6244C35.3587 27.5784 31.1444 27.7839 26.944 27.2567C28.0646 30.2355 28.4848 32.9839 26.7118 35.799C24.9488 38.2962 22.5154 38.7016 21.683 38.7016C19.4057 38.7016 17.8448 36.8382 17.2124 34.3562C16.9823 33.6634 16.7202 32.0265 16.6181 31.5964C16.0878 28.8555 14.3048 26.6629 11.2751 25.0241C9.92717 24.2877 8.50362 23.6843 7.02665 23.2235H2.34399C1.3014 23.2235 0.0546875 22.2204 0.0546875 21.0061V6.47201C0.202772 5.09778 1.00523 4.41257 2.46005 4.41257H8.68359C11.4131 3.82253 14.1347 3.19061 16.8462 2.51873C19.4657 1.84684 20.04 1.62415 21.8731 1.1445C25.9814 0.131913 28.833 0.689598 30.6861 2.42166ZM25.9194 3.22678C24.2805 3.22678 22.2053 3.70642 21.2848 3.98622C20.9606 4.08329 20.3922 4.24317 19.7939 4.40686L19.1936 4.57245L18.6172 4.72853L17.4966 5.02926C17.4966 5.02926 14.675 5.74873 9.14585 6.97069C8.93974 6.99353 8.82967 7.00876 8.81366 7.01256V21.0594C11.8374 22.1671 14.1927 23.5109 15.8777 25.0907C18.4071 27.4585 19.1095 29.5978 19.5237 32.3368C19.7599 33.7129 20.1421 34.8226 20.7184 35.582C20.884 35.8096 21.1249 35.9778 21.4028 36.0598C21.697 36.1492 22.1032 36.1549 22.9697 35.7095C23.8362 35.2603 24.9508 34.086 25.161 32.3368C25.301 30.6371 24.8208 29.1639 24.1764 27.6145C23.954 27.0867 23.7157 26.5649 23.462 26.05C23.0257 25.2639 23.6821 23.9582 25.0349 24.2418C26.8479 24.7271 31.3465 25.3838 33.8839 24.2418C35.3587 23.429 35.725 22.1176 34.9785 20.3094C34.7318 19.8949 34.3939 19.5359 33.988 19.2569C33.6478 19.0627 32.9834 18.2215 33.7819 17.2679C34.5743 16.0592 35.733 13.5982 32.8013 12.0641C32.5967 11.9571 32.4258 11.8002 32.3062 11.6095C32.1866 11.4188 32.1226 11.2012 32.1209 10.9792C32.0809 10.4576 32.1689 8.52383 30.6601 7.6597C30.2999 7.47508 29.8656 7.32281 29.6195 6.87933C29.4634 6.58621 29.4134 5.87435 29.4134 5.87435C29.2073 4.67143 28.9231 3.54845 25.9194 3.22678ZM6.09612 7.00685H2.77823V20.6292H6.09612V7.00685Z" fill="#111111" fill-opacity="0.89"/>
</svg>
