<svg width="40" height="10" viewBox="0 0 40 10" fill="none" xmlns="http://www.w3.org/2000/svg">
<path fill-rule="evenodd" clip-rule="evenodd" d="M5 0C6.32608 0 7.59785 0.526784 8.53553 1.46447C9.47322 2.40215 10 3.67392 10 5C10 6.32608 9.47322 7.59785 8.53553 8.53553C7.59785 9.47322 6.32608 10 5 10C3.67392 10 2.40215 9.47322 1.46447 8.53553C0.526784 7.59785 0 6.32608 0 5C0 3.67392 0.526784 2.40215 1.46447 1.46447C2.40215 0.526784 3.67392 0 5 0ZM35 0C36.3261 0 37.5979 0.526784 38.5355 1.46447C39.4732 2.40215 40 3.67392 40 5C40 6.32608 39.4732 7.59785 38.5355 8.53553C37.5979 9.47322 36.3261 10 35 10C33.6739 10 32.4021 9.47322 31.4645 8.53553C30.5268 7.59785 30 6.32608 30 5C30 3.67392 30.5268 2.40215 31.4645 1.46447C32.4021 0.526784 33.6739 0 35 0ZM20.452 0C21.7781 0 23.0499 0.526784 23.9875 1.46447C24.9252 2.40215 25.452 3.67392 25.452 5C25.452 6.32608 24.9252 7.59785 23.9875 8.53553C23.0499 9.47322 21.7781 10 20.452 10C19.1259 10 17.8541 9.47322 16.9165 8.53553C15.9788 7.59785 15.452 6.32608 15.452 5C15.452 3.67392 15.9788 2.40215 16.9165 1.46447C17.8541 0.526784 19.1259 0 20.452 0Z" fill="#111111"/>
</svg>
