<svg width="37" height="30" viewBox="0 0 37 30" fill="none" xmlns="http://www.w3.org/2000/svg">
<path d="M35.2591 30L21.2096 18.5346C20.0878 19.3146 18.7977 19.9182 17.3393 20.3454C15.881 20.7727 14.4152 20.9863 12.9419 20.9863C9.34908 20.9863 6.30823 19.9713 3.81931 17.9414C1.3304 15.9103 0.0859375 13.4294 0.0859375 10.4986C0.0859375 7.5679 1.3289 5.08575 3.81483 3.05218C6.30225 1.01739 9.3416 0 12.9329 0C16.5257 0 19.568 1.01556 22.0599 3.04669C24.5518 5.07782 25.7978 7.55996 25.7978 10.4931C25.7978 11.765 25.5218 12.996 24.9699 14.1861C24.4164 15.3763 23.691 16.3943 22.7936 17.2402L36.8431 28.7037L35.2591 30ZM12.9419 19.1535C15.9184 19.1535 18.432 18.3174 20.4826 16.6451C22.5318 14.9728 23.5564 12.9216 23.5564 10.4913C23.5564 8.06225 22.5318 6.0116 20.4826 4.33933C18.4335 2.66707 15.9206 1.83094 12.9441 1.83094C9.96757 1.83094 7.45397 2.66707 5.40331 4.33933C3.35414 6.0116 2.32955 8.06225 2.32955 10.4913C2.32955 12.9204 3.35414 14.971 5.40331 16.6433C7.45247 18.3155 9.96532 19.1535 12.9419 19.1535Z" fill="black"/>
</svg>
