<svg width="41" height="39" viewBox="0 0 41 39" fill="none" xmlns="http://www.w3.org/2000/svg">
<path d="M20.1051 0.640625C30.7952 0.640625 40.1165 9.03445 40.1165 18.7226C40.1165 28.247 31.0053 35.7424 20.1051 35.7424C17.7738 35.7436 15.457 35.3928 13.2412 34.7032C12.3127 35.5597 11.9945 35.8509 10.0234 37.6591C8.60258 38.6793 7.26583 39.0257 6.07115 38.3824C4.86646 37.7352 4.50426 36.4752 4.7504 34.8155L5.55085 30.4016C2.07488 27.2915 0.09375 23.1802 0.09375 18.7226C0.09375 9.03445 9.41305 0.640625 20.1051 0.640625ZM20.1051 3.30533C10.9279 3.30533 2.89534 10.5381 2.89534 18.7226C2.89534 22.6149 4.72038 26.199 7.93821 28.8675L7.97823 28.8998L8.57257 29.3909L8.43849 30.1332L8.16233 31.6635L8.08829 32.0708L7.51797 35.2266C7.48433 35.4391 7.46428 35.6533 7.45793 35.868V36.0488C7.45793 36.0584 7.45593 36.0622 7.45393 36.0641C7.46794 36.045 7.74009 35.9632 8.20636 35.6396L12.5488 31.6311L13.3773 31.9281C15.5294 32.6918 17.8081 33.0819 20.1051 33.0796C29.5425 33.0796 37.3149 26.6843 37.3149 18.7226C37.3149 10.54 29.2823 3.30533 20.1051 3.30533ZM10.5537 15.5116C10.9568 15.4976 11.3588 15.561 11.7356 15.6981C12.1124 15.8352 12.4563 16.0431 12.7467 16.3094C13.0371 16.5757 13.2681 16.895 13.4259 17.2481C13.5837 17.6013 13.665 17.981 13.665 18.3647C13.665 18.7484 13.5837 19.1282 13.4259 19.4813C13.2681 19.8345 13.0371 20.1537 12.7467 20.4201C12.4563 20.6864 12.1124 20.8943 11.7356 21.0314C11.3588 21.1684 10.9568 21.2319 10.5537 21.2179C9.77708 21.1909 9.04174 20.8785 8.50236 20.3463C7.96297 19.8142 7.66158 19.1039 7.66158 18.3647C7.66158 17.6256 7.96297 16.9152 8.50236 16.3831C9.04174 15.851 9.77708 15.5386 10.5537 15.5116ZM20.5554 15.5116C20.9585 15.4976 21.3605 15.561 21.7373 15.6981C22.1141 15.8352 22.458 16.0431 22.7484 16.3094C23.0388 16.5757 23.2698 16.895 23.4276 17.2481C23.5854 17.6013 23.6667 17.981 23.6667 18.3647C23.6667 18.7484 23.5854 19.1282 23.4276 19.4813C23.2698 19.8345 23.0388 20.1537 22.7484 20.4201C22.458 20.6864 22.1141 20.8943 21.7373 21.0314C21.3605 21.1684 20.9585 21.2319 20.5554 21.2179C19.7788 21.1909 19.0434 20.8785 18.504 20.3463C17.9647 19.8142 17.6633 19.1039 17.6633 18.3647C17.6633 17.6256 17.9647 16.9152 18.504 16.3831C19.0434 15.851 19.7788 15.5386 20.5554 15.5116ZM30.5551 15.5116C30.9582 15.4976 31.3602 15.561 31.737 15.6981C32.1138 15.8352 32.4577 16.0431 32.7481 16.3094C33.0385 16.5757 33.2695 16.895 33.4273 17.2481C33.585 17.6013 33.6664 17.981 33.6664 18.3647C33.6664 18.7484 33.585 19.1282 33.4273 19.4813C33.2695 19.8345 33.0385 20.1537 32.7481 20.4201C32.4577 20.6864 32.1138 20.8943 31.737 21.0314C31.3602 21.1684 30.9582 21.2319 30.5551 21.2179C29.7784 21.1909 29.0431 20.8785 28.5037 20.3463C27.9643 19.8142 27.6629 19.1039 27.6629 18.3647C27.6629 17.6256 27.9643 16.9152 28.5037 16.3831C29.0431 15.851 29.7784 15.5386 30.5551 15.5116Z" fill="#111111"/>
</svg>
