<svg width="39" height="40" viewBox="0 0 39 40" fill="none" xmlns="http://www.w3.org/2000/svg">
<path fill-rule="evenodd" clip-rule="evenodd" d="M30.6135 1.87146C31.4055 2.60546 31.9235 4.13746 32.0255 5.06146C33.2055 5.79346 34.6015 7.26946 34.7235 10.0495C36.8295 11.5115 38.4295 14.2155 36.4315 18.1695C37.5915 19.2495 38.8855 22.5455 37.2215 25.2015C35.2835 28.3055 31.0715 28.5215 26.8735 27.9675C27.9935 31.0975 28.4135 33.9855 26.6415 36.9435C24.8795 39.5675 22.4475 39.9935 21.6155 39.9935C19.3395 39.9935 17.7795 38.0355 17.1475 35.4275C16.9175 34.6995 16.6555 32.9795 16.5535 32.5275C16.0235 29.6475 14.2415 27.3435 11.2135 25.6215C9.86638 24.8477 8.44365 24.2137 6.96751 23.7295H2.28751C1.24551 23.7295 -0.000488281 22.6755 -0.000488281 21.3995V6.12746C0.147512 4.68346 0.949512 3.96346 2.40351 3.96346H8.62351C11.3515 3.34346 14.0715 2.67946 16.7815 1.97346C19.3995 1.26746 19.9735 1.03346 21.8055 0.529459C25.9115 -0.534541 28.7615 0.0514592 30.6135 1.87146ZM25.8495 2.71746C24.2115 2.71746 22.1375 3.22146 21.2175 3.51546C20.8935 3.61746 20.3255 3.78546 19.7275 3.95746L19.1275 4.13146L18.5515 4.29546L17.4315 4.61146C17.4315 4.61146 14.6115 5.36746 9.08551 6.65146C8.87951 6.67546 8.76951 6.69146 8.75351 6.69546V21.4555C11.7755 22.6195 14.1295 24.0315 15.8135 25.6915C18.3415 28.1795 19.0435 30.4275 19.4575 33.3055C19.6935 34.7515 20.0755 35.9175 20.6515 36.7155C20.817 36.9546 21.0578 37.1313 21.3355 37.2175C21.6295 37.3115 22.0355 37.3175 22.9015 36.8495C23.7675 36.3775 24.8815 35.1435 25.0915 33.3055C25.2315 31.5195 24.7515 29.9715 24.1075 28.3435C23.8852 27.7888 23.6471 27.2406 23.3935 26.6995C22.9575 25.8735 23.6135 24.5015 24.9655 24.7995C26.7775 25.3095 31.2735 25.9995 33.8095 24.7995C35.2835 23.9455 35.6495 22.5675 34.9035 20.6675C34.6569 20.2319 34.3192 19.8546 33.9135 19.5615C33.5735 19.3575 32.9095 18.4735 33.7075 17.4715C34.4995 16.2015 35.6575 13.6155 32.7275 12.0035C32.523 11.8911 32.3522 11.7262 32.2327 11.5258C32.1132 11.3254 32.0492 11.0968 32.0475 10.8635C32.0075 10.3155 32.0955 8.28346 30.5875 7.37546C30.2275 7.18146 29.7935 7.02146 29.5475 6.55546C29.3915 6.24746 29.3415 5.49946 29.3415 5.49946C29.1355 4.23546 28.8515 3.05546 25.8495 2.71746ZM6.03751 6.68946H2.72151V21.0035H6.03751V6.68946Z" fill="#111111" fill-opacity="0.89"/>
</svg>
